<?xml version="1.0" encoding="UTF-8"?><svg id="Calque_3" xmlns="http://www.w3.org/2000/svg" xmlns:xlink="http://www.w3.org/1999/xlink" viewBox="0 0 620 196"><defs><style>.cls-1{fill:url(#Dégradé_sans_nom_13);}.cls-1,.cls-2,.cls-3,.cls-4,.cls-5,.cls-6{stroke-width:0px;}.cls-2{fill:url(#Dégradé_sans_nom_13-5);}.cls-3{fill:url(#Dégradé_sans_nom_13-3);}.cls-4{fill:url(#Dégradé_sans_nom_13-2);}.cls-5{fill:url(#Dégradé_sans_nom_13-4);}.cls-6{fill:#857cff;}</style><linearGradient id="Dégradé_sans_nom_13" x1="153.46" y1="174.47" x2="153.46" y2="13.5" gradientUnits="userSpaceOnUse"><stop offset="0" stop-color="#857cff"/><stop offset="1" stop-color="#3626ff"/></linearGradient><linearGradient id="Dégradé_sans_nom_13-2" x1="137.15" y1="174.11" x2="137.15" y2="13.5" xlink:href="#Dégradé_sans_nom_13"/><linearGradient id="Dégradé_sans_nom_13-3" x1="25.12" x2="25.12" y2="13.86" xlink:href="#Dégradé_sans_nom_13"/><linearGradient id="Dégradé_sans_nom_13-4" x1="89.29" y1="178.14" x2="89.29" y2="13.13" xlink:href="#Dégradé_sans_nom_13"/><linearGradient id="Dégradé_sans_nom_13-5" x1="41.43" y1="174.88" x2="41.43" y2="13.49" xlink:href="#Dégradé_sans_nom_13"/></defs><path class="cls-6" d="M236.75,96.68h-32.64v-11.83h78.75v11.83h-32.64v83.37h-13.46v-83.37Z"/><path class="cls-6" d="M364.18,138.57v41.48h-13.06v-39.98c0-14.14-7.07-21.08-19.45-21.08-13.87,0-22.85,8.3-22.85,23.94v37.13h-13.06v-100.91h13.06v39.03c5.44-6.94,14.42-10.88,25.43-10.88,17.54,0,29.92,10.06,29.92,31.28Z"/><path class="cls-6" d="M445.51,136.53v43.52h-12.38v-9.52c-4.35,6.53-12.38,10.34-23.67,10.34-16.32,0-26.66-8.7-26.66-21.22,0-11.56,7.48-21.08,28.97-21.08h20.67v-2.58c0-11.02-6.39-17.41-19.31-17.41-8.57,0-17.27,2.99-22.85,7.75l-5.44-9.79c7.48-5.98,18.22-9.25,29.78-9.25,19.72,0,30.87,9.52,30.87,29.24ZM432.45,158.02v-10.06h-20.13c-12.92,0-16.59,5.03-16.59,11.15,0,7.21,5.98,11.7,15.91,11.7s17.54-4.49,20.81-12.78Z"/><path class="cls-6" d="M469.71,79.14h13.06v100.91h-13.06v-100.91Z"/><path class="cls-6" d="M505.34,85.66c0-4.76,3.81-8.57,8.84-8.57s8.84,3.67,8.84,8.3c0,4.9-3.67,8.7-8.84,8.7s-8.84-3.67-8.84-8.43ZM507.66,107.97h13.06v72.08h-13.06v-72.08Z"/><path class="cls-6" d="M610.47,148.36h-58.48c1.63,12.65,11.83,21.08,26.11,21.08,8.43,0,15.5-2.86,20.81-8.7l7.21,8.43c-6.53,7.62-16.46,11.7-28.42,11.7-23.26,0-38.76-15.37-38.76-36.86s15.37-36.72,36.18-36.72,35.63,14.96,35.63,37.13c0,1.09-.14,2.72-.27,3.94ZM551.99,138.98h46.24c-1.36-12.1-10.47-20.67-23.12-20.67s-21.76,8.43-23.12,20.67Z"/><rect class="cls-1" x="143.73" y="84.92" width="19.47" height="95.43"/><polygon class="cls-4" points="111.5 180.15 130.98 180.15 130.98 69.8 162.79 69.8 162.79 50.32 111.5 50.32 111.5 180.15"/><rect class="cls-3" x="15.38" y="84.92" width="19.47" height="95.43"/><polygon class="cls-5" points="15.29 15.71 15.29 35.19 79.55 35.19 79.55 179.95 99.03 179.95 99.03 35.19 163.29 35.19 163.29 15.71 15.29 15.71"/><polygon class="cls-2" points="15.79 69.8 47.59 69.8 47.59 180.15 67.07 180.15 67.07 50.32 15.79 50.32 15.79 69.8"/></svg>